PathFileType	4	(X/Y/Z)	Patient4_TMGait_0pt7_01_right_49.trc.trc
DataRate	CameraRate	NumFrames	NumMarkers	Units	OrigDataRate	OrigDataStartFrame	OrigNumFrames
85.365853658537	85.365853658537	5	33	mm	85.365853658537	36	       141
Frame#	Time	Sacral			L.Shoulder			Chest			R.Shoulder			Neck			R.ASIS			L.ASIS			R.Thigh.Superior			R.Thigh.Lateral			R.Thigh.Inferior			R.Patella			L.Thigh.Superior			L.Thigh.Lateral			L.Thigh.Inferior			L.Patella			L.Shank.Superior			L.Shank.Lateral			L.Shank.Inferior			R.Shank.Superior			R.Shank.Lateral			R.Shank.Inferior			R.Heel			R.Midfoot.Superior			R.Midfoot.Lateral			R.Toe			L.Heel			L.Midfoot.Lateral			L.Midfoot.Superior			L.Toe			L.Elbow			L.Wrist			R.Elbow			R.Wrist			
		X1	Y1	Z1	X2	Y2	Z2	X3	Y3	Z3	X4	Y4	Z4	X5	Y5	Z5	X6	Y6	Z6	X7	Y7	Z7	X8	Y8	Z8	X9	Y9	Z9	X10	Y10	Z10	X11	Y11	Z11	X12	Y12	Z12	X13	Y13	Z13	X14	Y14	Z14	X15	Y15	Z15	X16	Y16	Z16	X17	Y17	Z17	X18	Y18	Z18	X19	Y19	Z19	X20	Y20	Z20	X21	Y21	Z21	X22	Y22	Z22	X23	Y23	Z23	X24	Y24	Z24	X25	Y25	Z25	X26	Y26	Z26	X27	Y27	Z27	X28	Y28	Z28	X29	Y29	Z29	X30	Y30	Z30	X31	Y31	Z31	X32	Y32	Z32	X33	Y33	Z33	

36	56.780000000000	857.823630130781	1001.795641202095	503.126467115791	1065.709762881641	1418.684752349569	316.906011752243	1149.983859037297	1351.576531044518	490.098103184755	1052.225217176348	1441.636472640057	648.666996690882	1056.138856512560	1485.885158916997	467.379560038243	1076.673314923120	940.137848042152	637.300511047314	1079.405090080769	951.335811571873	361.410633658600	1143.662421063659	752.637891722120	607.948261564188	1074.896075949378	633.746980241867	665.052909870151	1161.585130674179	591.838286801912	588.025215641964	1175.752080152269	503.205850060897	595.367228613847	1093.140032872655	727.357592633867	383.002089595916	990.032282465818	626.266240204397	312.169719207681	1063.007426332559	530.587105263453	368.562662578080	1046.127111662878	448.456274024496	363.175748542936	977.542547430890	395.719707492469	355.325450077485	837.594129495788	351.440955109830	306.250940807627	825.849307376577	221.637989369457	360.781269456062	1155.239090747008	412.778434806634	600.927486095450	1092.000603763125	302.580895675969	659.678679447486	1144.982798252111	212.019434609910	598.695193916910	1025.494186842702	43.349986166768	566.057396444857	1196.429090943702	98.888389887398	602.713957303077	1108.906042333333	37.365534238351	640.139930689336	1316.962422835350	46.244584670202	629.126694472950	635.953352575934	147.909426158871	397.166865028554	697.000908265450	97.853363910697	323.772411918422	799.785957945654	116.477831208214	344.821417597429	885.962324166141	32.423506452274	332.839407115566	1081.354673096764	1077.775156065310	190.840195186860	1319.835221901312	1070.607474209939	278.501970422320	913.465685397312	1128.190287619130	771.131418363784	915.369637698243	865.409195034296	777.541951994809	
37	56.791714285714	858.418116789238	1003.301406046389	506.785921188518	1065.838458802865	1419.768429743423	319.167980966660	1151.202842056152	1352.521891518793	491.767459701391	1054.828396217681	1442.866728798979	650.932817801578	1057.161001406065	1486.947097071640	469.660616132361	1077.725376939249	941.053886809145	639.707325620320	1079.645008833305	952.695165756600	363.936517769791	1142.401400468359	751.702820703237	611.400972447514	1071.503711476753	633.833891508284	667.455770035614	1158.020879625356	591.097406507516	590.537070859035	1170.980711107999	502.478352449154	597.190747378785	1098.146748880264	729.640994261798	385.057105619376	998.872333981320	626.182382112335	313.421160291408	1074.802522870401	531.843386690399	369.477051587158	1058.779449674924	448.537054627208	363.403507318346	988.206823876242	396.183314381313	355.569003768471	846.671036902269	357.189418102782	306.442138400585	830.557734798440	227.621749162599	360.064934478367	1149.926724007761	412.311509113784	602.475949856976	1085.912170717149	302.394747329134	660.853039232200	1138.125946046877	211.692166157030	599.347163349151	1017.469927977818	43.378715744289	566.197936745584	1188.454738554598	98.955971664622	603.001753261738	1100.831917043194	37.330397344885	640.273447313382	1308.943764435111	45.897659318214	629.382038153317	638.265876815893	164.458814578128	395.814732783528	696.103511283550	109.924102945746	322.860294495949	799.870565256863	121.638991946077	343.984103116727	879.061245404501	30.993733262200	332.777084508521	1074.789601787546	1077.676531487744	194.646233034308	1313.846530800788	1056.541271310709	280.042334422287	920.629653420947	1127.509104129843	775.265070328509	934.960332624514	865.080346052175	779.627587980101	
38	56.803428571429	858.791172912835	1004.544087792230	510.332240889200	1065.543763328959	1420.630350265896	321.386246899182	1152.247598569991	1353.169896612767	493.272498197972	1057.442071499108	1443.687999313297	653.223030070495	1058.012338624708	1487.760847133656	471.984534852240	1078.646815713483	941.691639289241	641.920436587777	1079.696166326547	953.747978359195	366.289002461918	1141.059214461756	750.636312217413	614.822197238120	1068.095818779368	633.844426874117	669.809216788517	1154.431108688561	590.317661448053	593.004226601565	1166.158460923020	501.713034895284	599.037631563051	1103.182541305565	732.040337588657	386.950536550235	1007.925580934027	626.264638193611	314.522298568810	1086.703721120353	533.442692218424	370.426178856476	1071.719282117337	449.013361385155	363.905120970368	999.380870087382	396.885066678701	356.015553978515	856.591639748086	362.969195400229	306.573150590984	836.105689669823	233.886058573356	359.571921311233	1144.581350435503	411.789659754407	604.022807998431	1079.802019588820	302.159607530108	662.026310009134	1131.275662378259	211.324483284314	600.004503231726	1009.411302594420	43.432884635913	566.330162390642	1180.482038052846	98.905547770825	603.223233535496	1092.729789720439	37.284700165341	640.390208991648	1300.921837161912	45.395222995879	629.597728540733	641.981487147863	181.172540056668	394.545157977380	696.550248598883	122.607241606301	321.959080911746	800.919776594563	127.515396660718	343.346990143238	873.011622757877	29.735083025574	332.631176588171	1068.284750409955	1077.434059092579	198.460157411528	1307.124975996777	1041.400445578365	281.269186966083	927.949864756534	1126.503916122894	779.502771418998	955.321174575791	865.090976767639	781.748387328862	
39	56.815142857143	858.932653817308	1005.547453854485	513.726990031680	1064.852611990065	1421.298074114431	323.540110815817	1153.108433577370	1353.538646734736	494.598682973203	1060.037099061252	1444.117138640876	655.508183590668	1058.728198036524	1488.355010729607	474.325517478774	1079.422749332112	942.119315220342	643.945657464225	1079.469788179536	954.466762034888	368.442320190521	1139.672071569348	749.553562732466	618.077036479023	1064.789272229206	633.840235434117	672.083515879698	1150.897427182813	589.548527196803	595.375824693258	1161.371048307535	500.941750552014	600.897722571924	1108.117276847536	734.603777383053	388.723140629921	1017.020795872061	626.616688091721	315.490248203318	1098.528115997862	535.475902973214	371.393831524089	1084.787427401292	449.971024588531	364.597657016095	1010.913507721426	397.907461918741	356.612642777738	867.170097083134	368.731255274770	306.676768970775	842.467752708947	240.322075577525	359.309449737214	1139.265622883695	411.239944001189	605.559396416166	1073.709701281088	301.919757409587	663.200864395114	1124.448706481829	210.940194644121	600.676745599933	1001.317824626350	43.516047603128	566.471602269724	1172.504597587191	98.764347923215	603.405925650748	1084.601764816704	37.239759630592	640.505674222458	1292.888382524117	44.791272383569	629.790351355612	647.060316875897	197.519496624581	393.464729461202	698.442827930786	135.488041236187	321.138633045564	803.072647440501	133.969957308372	342.908911730974	868.209076030903	28.861825039449	332.379188749708	1061.876520640363	1077.025905235026	202.303894788109	1299.551213982878	1025.273800276223	282.137934269064	935.531310569483	1125.128136165288	783.773773519282	976.366567855994	865.476610532076	783.848476913884	
40	56.826857142857	858.842040959283	1006.356165081749	516.946463553406	1063.813902156302	1421.815941327292	325.609913910969	1153.780043304793	1353.672209717594	495.739133243705	1062.579260400153	1444.207007993292	657.749923671988	1059.343339424192	1488.774690044217	476.648075637549	1080.044365014429	942.418011394573	645.794342634334	1078.889729154355	954.862175360825	370.385346662232	1138.248038697757	748.544697043776	621.067175891596	1061.628410766783	633.862544401648	674.246534728000	1147.452915145356	588.821294469182	597.613828402517	1156.660613303300	500.189566608712	602.743878126779	1112.834247470619	737.381325447737	390.418973231777	1025.997541592930	627.332371883099	316.338692219220	1110.122809757519	538.023157382030	372.341178904591	1097.843563492432	451.489383246678	365.362549060401	1022.673650234170	399.326711832752	357.275666914549	878.220974443452	374.416517409498	306.784700296729	849.638873835276	246.788585264134	359.263517011862	1134.006663061366	410.688241278601	607.068385782238	1067.643821902206	301.711365339606	664.364770918836	1117.645364626352	210.563953737067	601.366891278916	993.193408510364	43.629180472558	566.632754215937	1164.518189540319	98.567166335622	603.575593568666	1076.453021632819	37.204727570318	640.629035086044	1284.837314995116	44.143081259903	629.973893249175	653.435211968184	212.924440996022	392.679001830077	701.862979098035	148.083274593842	320.471035562522	806.483984818954	140.792147657215	342.654069361653	865.110887388816	28.584269181127	331.998629180783	1055.580841236716	1076.461914711198	206.200979439064	1290.988441753910	1008.293839548392	282.610973046682	943.488784388273	1123.378942519140	788.004021909864	998.024313691532	866.290258532496	785.858544905616	
